<svg width="24" height="23" viewBox="0 0 24 23" fill="none" xmlns="http://www.w3.org/2000/svg">
<path d="M0 2.5C0 1.11929 0.767512 0 1.71429 0H22.2857C23.2325 0 24 1.11929 24 2.5C24 3.88071 23.2325 5 22.2857 5H1.71429C0.767513 5 0 3.88071 0 2.5Z" fill="#EDEDED"/>
<path d="M0 11.5C0 10.1193 0.767512 9 1.71429 9H22.2857C23.2325 9 24 10.1193 24 11.5C24 12.8807 23.2325 14 22.2857 14H1.71429C0.767513 14 0 12.8807 0 11.5Z" fill="#EDEDED"/>
<path d="M0 20.5C0 19.1193 0.767512 18 1.71429 18H22.2857C23.2325 18 24 19.1193 24 20.5C24 21.8807 23.2325 23 22.2857 23H1.71429C0.767513 23 0 21.8807 0 20.5Z" fill="#EDEDED"/>
</svg>
